<?xml version="1.0" encoding="UTF-8"?>
<svg width="141" height="53" viewBox="0 0 141 53" fill="none" xmlns="http://www.w3.org/2000/svg">
<path fill-rule="evenodd" clip-rule="evenodd" d="M4.42395 38.9723C2.33265 35.8094 1.27222 32.2626 1.27222 28.4299V5.9881L14.7723 1.44813V47.8771C13.7094 47.3107 12.5993 46.6557 11.4936 45.9044C8.49892 43.8698 6.12033 41.5375 4.42395 38.9723Z" fill="#FFFFFE"/>
<path fill-rule="evenodd" clip-rule="evenodd" d="M42.1052 28.4299C42.1052 32.2629 41.0446 35.8102 38.9527 38.9731C37.2561 41.5386 34.8771 43.8711 31.8818 45.9057C30.7764 46.6565 29.6666 47.3114 28.6041 47.8774V1.44781L42.1052 5.9881V28.4299Z" fill="#2B9A47"/>
<path fill-rule="evenodd" clip-rule="evenodd" d="M32.5736 45.4208C33.3022 44.8977 33.9914 44.3561 34.6404 43.7969V22.09L42.1051 24.498V22.4088L32.5736 19.3339V45.4208Z" fill="#FFFFFE"/>
<path fill-rule="evenodd" clip-rule="evenodd" d="M32.2764 4.50895C33.2499 10.0718 37.101 15.5495 42.1053 18.6431V16.4498C41.6294 16.1284 41.1672 15.7819 40.721 15.4129C40.4237 15.167 40.1335 14.9114 39.8508 14.6465C37.1195 12.0866 35.1048 8.67994 34.3887 5.20305C34.2666 4.60939 34.1811 4.01381 34.1374 3.42L34.1293 3.30606L32.0596 2.60988L32.0669 2.75708C32.1036 3.34013 32.1744 3.9251 32.2764 4.50895Z" fill="#F8C73E"/>
<path fill-rule="evenodd" clip-rule="evenodd" d="M42.105 28.4297C42.105 32.2626 41.0446 35.8102 38.9523 38.9728C37.256 41.5386 34.8767 43.8713 31.8814 45.9058C30.7765 46.6563 29.6668 47.3112 28.6039 47.8777V1.4478L42.105 5.98778V28.4297ZM1.33787 30.0529C1.29335 29.5177 1.27189 28.9769 1.27189 28.4297V27.3617L3.54856 26.5961C3.73378 26.5334 3.85859 26.3582 3.85859 26.1613V25.038C3.85859 24.7254 3.55572 24.5045 3.26239 24.6033L1.27189 25.2725V22.5591L8.18936 20.2329C8.37458 20.171 8.50018 19.995 8.50018 19.7981V18.6748C8.50018 18.3622 8.19652 18.1413 7.90319 18.2401L1.27189 20.4699V17.7572L2.48336 17.3498C2.66858 17.2871 2.79338 17.1119 2.79338 16.9151V15.7917C2.79338 15.4791 2.49051 15.2582 2.19639 15.357L1.27189 15.668V12.9544L4.19405 11.9725C4.37927 11.9098 4.50407 11.7347 4.50407 11.537V10.4145C4.50407 10.1011 4.2012 9.88011 3.90708 9.97894L1.27189 10.8652V5.98778L14.7722 1.44861V47.8769C13.7094 47.3104 12.5996 46.6555 11.4939 45.9042C9.05186 44.2449 7.01923 42.3887 5.43334 40.3687L5.44924 40.3638C5.63446 40.3012 5.75926 40.126 5.75926 39.9291V38.8058C5.75926 38.4932 5.4564 38.2722 5.16227 38.3711L4.23618 38.6828C3.67575 37.803 3.19482 36.895 2.79338 35.9595V35.001C2.79338 34.7086 2.52867 34.4964 2.25442 34.5511C1.97937 33.7363 1.76236 32.903 1.60417 32.0521L4.19405 31.181C4.37927 31.1192 4.50407 30.944 4.50407 30.7463V29.6238C4.50407 29.3102 4.2012 29.0893 3.90708 29.1883L1.33787 30.0529ZM28.6127 0.0793839C28.6127 0.0793839 25.309 0.639448 21.6881 0.639448C18.0672 0.639448 14.7642 0.0793839 14.7642 0.0793839L0 5.04443C0 5.04443 0 11.2156 0 28.4128C0 46.3719 21.5935 52.0545 21.6873 52.0794H21.6881C21.7024 52.0754 43.3769 46.4048 43.3769 28.4128C43.3769 11.2156 43.3769 5.04443 43.3769 5.04443L28.6127 0.0793839Z" fill="#13112A"/>
<path fill-rule="evenodd" clip-rule="evenodd" d="M21.6882 5.01823L22.9339 8.89336H26.9648L23.7037 11.2882L24.9492 15.1635L21.6882 12.7685L18.4271 15.1635L19.6727 11.2882L16.4116 8.89336H20.4425L21.6882 5.01823Z" fill="#F8C73E"/>
<path fill-rule="evenodd" clip-rule="evenodd" d="M21.6882 22.8784L19.1527 24.7405L20.1212 21.7278L17.5857 19.8656H20.7196L21.6882 16.8529L22.6565 19.8656H25.7905L23.2551 21.7278L24.2235 24.7405L21.6882 22.8784Z" fill="#F8C73E"/>
<path fill-rule="evenodd" clip-rule="evenodd" d="M21.6882 25.8142L22.4399 28.1527H24.8724L22.9045 29.5982L23.6562 31.9367L21.6882 30.4913L19.7201 31.9367L20.4718 29.5982L18.5039 28.1527H20.9366L21.6882 25.8142Z" fill="#F8C73E"/>
<path fill-rule="evenodd" clip-rule="evenodd" d="M10.1882 7.86709L7.78287 8.67593C7.5975 8.73828 7.47253 8.91361 7.47253 9.11096V10.2338C7.47253 10.5467 7.77556 10.7677 8.06921 10.6689L10.4745 9.86002C10.6599 9.79766 10.785 9.62249 10.785 9.42498V8.30212C10.785 7.98939 10.4818 7.76841 10.1882 7.86709Z" fill="#13112A"/>
<path fill-rule="evenodd" clip-rule="evenodd" d="M6.47878 11.2037C6.66416 11.1413 6.78912 10.9662 6.78912 10.7687V9.6458C6.78912 9.33306 6.48594 9.11209 6.19229 9.21076L5.49784 9.44443C5.31246 9.50662 5.1875 9.68196 5.1875 9.87946V11.0023C5.1875 11.3151 5.49053 11.536 5.78417 11.4374L6.47878 11.2037Z" fill="#13112A"/>
<path fill-rule="evenodd" clip-rule="evenodd" d="M4.48163 14.5885L3.78702 14.822C3.60181 14.8844 3.47668 15.0595 3.47668 15.257V16.3799C3.47668 16.6926 3.77987 16.9136 4.07352 16.8149L4.76797 16.5813C4.95335 16.5189 5.07847 16.3438 5.07847 16.1462V15.0235C5.07847 14.7106 4.77528 14.4897 4.48163 14.5885Z" fill="#13112A"/>
<path fill-rule="evenodd" clip-rule="evenodd" d="M10.1882 12.6693L6.07218 14.0535C5.8868 14.1159 5.76184 14.2912 5.76184 14.4885V15.6114C5.76184 15.9243 6.06487 16.1453 6.35851 16.0464L10.4745 14.6623C10.6599 14.5999 10.785 14.4246 10.785 14.2272V13.1044C10.785 12.7916 10.4818 12.5707 10.1882 12.6693Z" fill="#13112A"/>
<path fill-rule="evenodd" clip-rule="evenodd" d="M10.1882 17.4716L9.49357 17.7053C9.30819 17.7676 9.18323 17.9429 9.18323 18.1403V19.2632C9.18323 19.5759 9.48641 19.7969 9.78006 19.6982L10.4745 19.4645C10.6599 19.4022 10.785 19.227 10.785 19.0295V17.9068C10.785 17.5939 10.4818 17.3729 10.1882 17.4716Z" fill="#13112A"/>
<path fill-rule="evenodd" clip-rule="evenodd" d="M10.1881 22.2738L8.42814 22.8659C8.24292 22.9282 8.1178 23.1034 8.1178 23.3009V24.4236C8.1178 24.7365 8.42082 24.9575 8.71447 24.8587L10.4744 24.2669C10.6598 24.2046 10.7849 24.0292 10.7849 23.8319V22.7089C10.7849 22.3961 10.4818 22.1752 10.1881 22.2738Z" fill="#13112A"/>
<path fill-rule="evenodd" clip-rule="evenodd" d="M5.13895 26.0612L7.12421 25.3935C7.30958 25.3313 7.43455 25.156 7.43455 24.9585V23.8358C7.43455 23.5229 7.13136 23.3019 6.83771 23.4007L4.85261 24.0683C4.66724 24.1307 4.54211 24.3058 4.54211 24.5033V25.6262C4.54211 25.9389 4.8453 26.1599 5.13895 26.0612Z" fill="#13112A"/>
<path fill-rule="evenodd" clip-rule="evenodd" d="M10.1882 27.0762L7.78287 27.8851C7.5975 27.9474 7.47253 28.1228 7.47253 28.3201V29.443C7.47253 29.7559 7.77556 29.9767 8.06921 29.878L10.4745 29.0692C10.6599 29.0068 10.785 28.8315 10.785 28.634V27.5113C10.785 27.1985 10.4818 26.9776 10.1882 27.0762Z" fill="#13112A"/>
<path fill-rule="evenodd" clip-rule="evenodd" d="M6.19229 28.4199L5.49784 28.6536C5.31246 28.7158 5.1875 28.8911 5.1875 29.0886V30.2115C5.1875 30.5242 5.49053 30.7452 5.78417 30.6465L6.47878 30.4128C6.66416 30.3505 6.78912 30.1752 6.78912 29.9778V28.855C6.78912 28.5422 6.48594 28.3212 6.19229 28.4199Z" fill="#13112A"/>
<path fill-rule="evenodd" clip-rule="evenodd" d="M10.1881 31.8785L3.78702 34.031C3.60181 34.0934 3.47668 34.2687 3.47668 34.4662V35.5891C3.47668 35.9018 3.77987 36.1228 4.07352 36.0241L10.4744 33.8714C10.6598 33.8092 10.7849 33.6339 10.7849 33.4364V32.3135C10.7849 32.0008 10.4818 31.7798 10.1881 31.8785Z" fill="#13112A"/>
<path fill-rule="evenodd" clip-rule="evenodd" d="M10.1882 36.6809L9.49357 36.9144C9.30819 36.9768 9.18323 37.1519 9.18323 37.3494V38.4721C9.18323 38.7852 9.48641 39.0062 9.78006 38.9072L10.4745 38.6737C10.6599 38.6113 10.785 38.4361 10.785 38.2386V37.1159C10.785 36.803 10.4818 36.5821 10.1882 36.6809Z" fill="#13112A"/>
<path fill-rule="evenodd" clip-rule="evenodd" d="M7.90317 37.4493L6.52763 37.9118C6.34241 37.9741 6.21729 38.1493 6.21729 38.3468V39.4697C6.21729 39.7826 6.52031 40.0035 6.81396 39.9047L8.18951 39.442C8.37472 39.3798 8.49985 39.2045 8.49985 39.007V37.8843C8.49985 37.5716 8.19682 37.3506 7.90317 37.4493Z" fill="#13112A"/>
<path fill-rule="evenodd" clip-rule="evenodd" d="M53.1501 5.51964H51.7034V5.26251H56.3777V5.51964H54.772V10.7912L57.7769 7.86613C58.2698 7.384 59.4783 6.17854 59.4783 5.85713C59.4783 5.64821 59.3352 5.51964 58.8263 5.51964H57.9359V5.26251H62.1017V5.51964H61.5611C60.623 5.51964 59.7962 6.32318 59.3034 6.78939L56.1712 9.82675L60.766 15.7573C61.0681 16.127 61.1796 16.3198 61.6246 16.3198H62.4991V16.5769H57.5703V16.3198H59.049L54.9786 11.0001L54.772 11.1608V16.3198H56.3777V16.5769H51.7034V16.3198H53.1501V5.51964Z" fill="#13112A"/>
<path fill-rule="evenodd" clip-rule="evenodd" d="M67.2045 7.78577H67.1725L65.6145 12.6555H68.842L67.2045 7.78577ZM68.9215 12.9125H65.5191L64.8672 14.9377C64.756 15.2591 64.6286 15.6447 64.6286 15.918C64.6286 16.143 64.8195 16.3198 65.3283 16.3198H66.155V16.5769H62.8798V16.3198H63.3885C63.8814 16.3198 64.0882 16.2716 64.3901 15.3716L67.8086 5.00522H67.9835L71.8472 16.3198H73.1668V16.5769H68.5082V16.3198H70.0664L68.9215 12.9125Z" fill="#13112A"/>
<path fill-rule="evenodd" clip-rule="evenodd" d="M75.5032 5.51964H73.9132V5.26251H78.7149V5.51964H77.1249V16.3198H79.1124C82.1651 16.3198 83.119 15.918 83.119 12.8805H83.3735V16.5769H73.9132V16.3198H75.5032V5.51964Z" fill="#13112A"/>
<path fill-rule="evenodd" clip-rule="evenodd" d="M85.3919 5.51964H83.9927V5.26251H87.0613L90.4003 13.8126L93.6755 5.26251H96.6966V5.51964H95.2974V16.3198H96.6966V16.5769H92.1809V16.3198H93.6755V6.13033H93.6438L89.7642 16.3198H89.6213L85.6781 6.32318H85.6463V14.9859C85.6463 16.0466 85.7894 16.3198 86.632 16.3198H87.2681V16.5769H83.9927V16.3198H84.406C85.2488 16.3198 85.3919 16.0466 85.3919 14.9859V5.51964Z" fill="#13112A"/>
<path fill-rule="evenodd" clip-rule="evenodd" d="M101.712 7.78577H101.68L100.122 12.6555H103.349L101.712 7.78577ZM103.429 12.9125H100.027L99.3746 14.9377C99.2633 15.2591 99.1361 15.6447 99.1361 15.918C99.1361 16.143 99.3269 16.3198 99.8358 16.3198H100.663V16.5769H97.3871V16.3198H97.896C98.3889 16.3198 98.5955 16.2716 98.8976 15.3716L102.316 5.00522H102.491L106.355 16.3198H107.674V16.5769H103.016V16.3198H104.574L103.429 12.9125Z" fill="#13112A"/>
<path fill-rule="evenodd" clip-rule="evenodd" d="M111.625 10.6304H112.42C114.296 10.6304 115.393 9.97155 115.393 8.10719C115.393 6.82137 114.964 5.51964 112.706 5.51964H111.625V10.6304ZM110.003 5.51964H108.413V5.26251H113.294C115.123 5.26251 117.11 5.68035 117.11 8.10719C117.11 10.0678 114.868 10.5821 113.707 10.7269V10.759C115.536 10.9197 116.506 11.3215 116.744 13.443L116.967 15.4036C117.078 16.3519 117.523 16.4162 117.794 16.4162C118.08 16.4162 118.286 16.3198 118.445 16.2555L118.541 16.4644C118.223 16.5769 117.825 16.6734 117.237 16.6734C115.297 16.6734 115.186 15.6288 114.964 13.7805L114.852 12.8162C114.741 11.8036 114.455 10.8876 112.658 10.8876H111.625V16.3198H113.246V16.5769H108.413V16.3198H110.003V5.51964Z" fill="#13112A"/>
<path fill-rule="evenodd" clip-rule="evenodd" d="M53.1501 21.666H51.7034V21.4089H60.2096L60.4322 24.1409H60.1619C60.0983 22.2607 59.049 21.666 57.3 21.666H54.772V26.841H55.9643C57.618 26.841 57.7769 25.8285 57.7769 24.7838H58.0313V29.0589H57.7769C57.7769 27.8375 57.618 27.0983 55.9485 27.0983H54.772V32.466H56.2666V32.7233H51.7034V32.466H53.1501V21.666Z" fill="#13112A"/>
<path fill-rule="evenodd" clip-rule="evenodd" d="M60.7496 26.391H59.4139V26.1339H60.7496C61.2583 26.1339 61.7671 26.1019 62.0851 25.7805V27.6767H62.1169C62.3076 26.9535 62.8641 25.7805 64.1679 25.7805C64.7562 25.7805 65.2172 26.166 65.2172 26.7285C65.2172 27.1465 64.9629 27.484 64.4859 27.484C63.9613 27.484 63.7864 27.2108 63.7864 26.7769C63.7864 26.4233 63.9613 26.1822 64.1361 26.0857C64.0725 26.0374 63.993 26.0374 63.9134 26.0374C63.2616 26.0374 62.0851 27.082 62.0851 29.1714V32.466H63.5318V32.7233H59.4139V32.466H60.7496V26.391Z" fill="#13112A"/>
<path fill-rule="evenodd" clip-rule="evenodd" d="M67.74 22.0678C68.1854 22.0678 68.5509 22.4374 68.5509 22.8874C68.5509 23.3374 68.1854 23.707 67.74 23.707C67.2949 23.707 66.9292 23.3374 66.9292 22.8874C66.9292 22.4374 67.2949 22.0678 67.74 22.0678ZM67.0723 26.391H65.8004V26.1339H67.0723C67.5811 26.1339 68.0898 26.1019 68.4078 25.7805V32.466H69.6798V32.7233H65.8004V32.466H67.0723V26.391Z" fill="#13112A"/>
<path fill-rule="evenodd" clip-rule="evenodd" d="M74.3398 29.2035C73.1792 29.2035 71.7323 29.2358 71.7323 30.9554C71.7323 31.8554 71.8753 32.5305 72.893 32.5305C74.0854 32.5305 74.6102 31.6304 74.6102 31.309V29.2035H74.3398ZM75.9457 31.8554C75.9457 32.1609 75.9934 32.5626 76.4226 32.5626C76.7883 32.5626 77.0109 32.2571 77.2494 31.9198L77.4244 32.0484C77.1222 32.5785 76.7088 32.9162 76.0252 32.9162C75.2779 32.9162 74.7372 32.4823 74.626 31.9198H74.5942C74.0536 32.643 73.3382 32.9162 72.2887 32.9162C71.0486 32.9162 70.3014 32.2894 70.3014 31.1965C70.3014 29.3965 72.6703 28.9466 74.308 28.9466H74.6102V26.9697C74.6102 26.2142 73.9105 26.0374 73.3062 26.0374C72.8453 26.0374 71.7641 26.2142 71.7641 26.7928C71.7641 27.1786 72.2887 27.0017 72.2887 27.725C72.2887 28.1107 71.9707 28.4 71.5574 28.4C71.1122 28.4 70.8578 28.0464 70.8578 27.5C70.8578 26.6803 71.7164 25.7805 73.3062 25.7805C74.5147 25.7805 75.9457 26.4071 75.9457 27.6447V31.8554Z" fill="#13112A"/>
<path fill-rule="evenodd" clip-rule="evenodd" d="M83.9902 21.666H82.4001V21.4089H87.2018V21.666H85.6118V32.466H87.5993C90.652 32.466 91.6059 32.0643 91.6059 29.0269H91.8604V32.7233H82.4001V32.466H83.9902V21.666Z" fill="#13112A"/>
<path fill-rule="evenodd" clip-rule="evenodd" d="M98.2353 22.8071C98.2353 23.1928 97.9014 23.5304 97.5198 23.5304C97.1224 23.5304 96.8042 23.1928 96.8042 22.8071C96.8042 22.4214 97.1224 22.0839 97.5198 22.0839C97.9014 22.0839 98.2353 22.4214 98.2353 22.8071ZM96.7565 29.2035C95.5961 29.2035 94.1492 29.2358 94.1492 30.9554C94.1492 31.8554 94.2923 32.5305 95.3098 32.5305C96.5023 32.5305 97.027 31.6304 97.027 31.309V29.2035H96.7565ZM95.2462 22.8071C95.2462 23.1928 94.9123 23.5304 94.5307 23.5304C94.1333 23.5304 93.8153 23.1928 93.8153 22.8071C93.8153 22.4214 94.1333 22.0839 94.5307 22.0839C94.9123 22.0839 95.2462 22.4214 95.2462 22.8071ZM98.3625 31.8554C98.3625 32.1609 98.4103 32.5626 98.8394 32.5626C99.2052 32.5626 99.4278 32.2571 99.6663 31.9198L99.8412 32.0484C99.539 32.5785 99.1258 32.9162 98.442 32.9162C97.6947 32.9162 97.154 32.4823 97.0429 31.9198H97.0111C96.4705 32.643 95.7551 32.9162 94.7056 32.9162C93.4654 32.9162 92.7181 32.2894 92.7181 31.1965C92.7181 29.3965 95.0872 28.9466 96.7247 28.9466H97.027V26.9697C97.027 26.2142 96.3273 26.0374 95.7231 26.0374C95.2621 26.0374 94.1808 26.2142 94.1808 26.7928C94.1808 27.1786 94.7056 27.0017 94.7056 27.725C94.7056 28.1107 94.3877 28.4 93.9743 28.4C93.5291 28.4 93.2746 28.0464 93.2746 27.5C93.2746 26.6803 94.1333 25.7805 95.7231 25.7805C96.9316 25.7805 98.3625 26.4071 98.3625 27.6447V31.8554Z" fill="#13112A"/>
<path fill-rule="evenodd" clip-rule="evenodd" d="M101.351 26.391H100.016V26.1339H101.351C101.86 26.1339 102.369 26.1019 102.687 25.7805V27.6767H102.719C102.909 26.9535 103.466 25.7805 104.77 25.7805C105.358 25.7805 105.819 26.166 105.819 26.7285C105.819 27.1465 105.565 27.484 105.088 27.484C104.563 27.484 104.388 27.2108 104.388 26.7769C104.388 26.4233 104.563 26.1822 104.738 26.0857C104.674 26.0374 104.595 26.0374 104.515 26.0374C103.863 26.0374 102.687 27.082 102.687 29.1714V32.466H104.134V32.7233H100.016V32.466H101.351V26.391Z" fill="#13112A"/>
<path fill-rule="evenodd" clip-rule="evenodd" d="M111.444 28.7214C111.444 27.3231 111.38 26.0374 109.599 26.0374C107.819 26.0374 107.755 27.3231 107.755 28.7214V29.9751C107.755 31.3732 107.819 32.6589 109.599 32.6589C111.38 32.6589 111.444 31.3732 111.444 29.9751V28.7214ZM109.599 25.7805C111.65 25.7805 112.97 27.5 112.97 29.3483C112.97 31.1965 111.65 32.9162 109.599 32.9162C107.548 32.9162 106.229 31.1965 106.229 29.3483C106.229 27.5 107.548 25.7805 109.599 25.7805Z" fill="#13112A"/>
<path fill-rule="evenodd" clip-rule="evenodd" d="M113.978 26.391H113.056V26.1339H116.696V26.391H115.52L117.523 31.2768L119.081 27.6929C119.256 27.2911 119.352 26.9858 119.352 26.809C119.352 26.4392 118.907 26.391 118.636 26.391H118.08V26.1339H120.846V26.391C120.115 26.391 119.924 26.4554 119.59 27.2108L116.999 33.109H116.872L113.978 26.391Z" fill="#13112A"/>
<path fill-rule="evenodd" clip-rule="evenodd" d="M125.225 28.0143C125.225 26.9858 124.954 26.0374 123.905 26.0374C122.792 26.0374 122.458 26.9858 122.458 28.0143V28.4643H125.113C125.193 28.4643 125.225 28.4161 125.225 28.3518V28.0143ZM122.458 30.2322C122.442 31.3732 122.601 32.6589 124.096 32.6589C125.431 32.6589 126.417 31.7591 126.64 30.4411H126.894C126.64 31.9198 125.559 32.9162 124.096 32.9162C122.235 32.9162 120.932 31.4697 120.932 29.3483C120.932 27.7893 122.172 25.7805 123.905 25.7805C125.781 25.7805 126.751 27.9018 126.751 28.5768C126.751 28.6734 126.703 28.7214 126.608 28.7214H122.458V30.2322Z" fill="#13112A"/>
<path fill-rule="evenodd" clip-rule="evenodd" d="M128.416 26.391H127.081V26.1339H128.416C128.925 26.1339 129.434 26.1019 129.752 25.7805V27.6767H129.784C129.975 26.9535 130.531 25.7805 131.835 25.7805C132.423 25.7805 132.884 26.166 132.884 26.7285C132.884 27.1465 132.63 27.484 132.153 27.484C131.628 27.484 131.453 27.2108 131.453 26.7769C131.453 26.4233 131.628 26.1822 131.803 26.0857C131.74 26.0374 131.66 26.0374 131.581 26.0374C130.929 26.0374 129.752 27.082 129.752 29.1714V32.466H131.199V32.7233H127.081V32.466H128.416V26.391Z" fill="#13112A"/>
<path fill-rule="evenodd" clip-rule="evenodd" d="M134.005 21.5696H132.749V21.3125H134.005C134.513 21.3125 135.022 21.2803 135.34 20.9106V29.8626L137.884 27.3875C138.234 27.0501 138.441 26.7606 138.441 26.6481C138.441 26.4713 138.218 26.391 137.725 26.391H137.185V26.1339H140.539V26.391H139.983C139.442 26.391 139.188 26.5196 138.647 27.0338L136.882 28.7214L139.379 31.8554C139.729 32.2894 139.856 32.466 140.158 32.466H140.969V32.7233H136.978V32.466H138.123L135.897 29.6856L135.34 30.2161V32.466H136.453V32.7233H132.749V32.466H134.005V21.5696Z" fill="#13112A"/>
<path fill-rule="evenodd" clip-rule="evenodd" d="M52.59 40.0423H53.3735C53.6317 39.0163 54.059 38.2153 54.5398 37.7114C54.976 37.2614 55.35 37.0544 55.7417 37.0544C56.0622 37.0544 56.3382 37.2794 56.3382 37.6124C56.3382 37.8554 56.1424 38.0263 55.9109 38.0263C55.6527 38.0263 55.4835 37.8374 55.4835 37.6394C55.4835 37.3964 55.626 37.3514 55.626 37.2704C55.626 37.1984 55.5547 37.1984 55.5013 37.1984C54.9671 37.1984 54.4864 38.5843 54.3706 39.0163L54.0946 40.0423H55.0295L55.0027 40.1862H54.0679C53.5426 42.0222 53.142 43.7501 52.7413 44.5691C52.1359 45.8108 51.7798 46.054 51.2189 46.054C50.9162 46.054 50.6847 45.7838 50.6847 45.532C50.6847 45.2619 50.8806 45.082 51.0853 45.082C51.3257 45.082 51.486 45.2349 51.486 45.451C51.486 45.712 51.3168 45.712 51.3168 45.82C51.3168 45.883 51.3702 45.91 51.4504 45.91C51.6017 45.91 51.949 45.775 52.1893 45.0279C52.5009 44.0559 52.8838 41.8602 53.3379 40.1862H52.5544L52.59 40.0423Z" fill="#13112A"/>
<path fill-rule="evenodd" clip-rule="evenodd" d="M58.6797 37.6124C58.8845 37.6124 59.0181 37.7024 59.0181 37.9184C59.0181 38.1883 58.8222 38.5843 58.5195 38.5843C58.2702 38.5843 58.2168 38.3863 58.2168 38.1793C58.2168 37.9813 58.4572 37.6124 58.6797 37.6124ZM56.997 37.6124C57.2018 37.6124 57.3353 37.7024 57.3353 37.9184C57.3353 38.1883 57.1395 38.5843 56.8368 38.5843C56.5875 38.5843 56.5341 38.3863 56.5341 38.1793C56.5341 37.9813 56.7744 37.6124 56.997 37.6124ZM56.4628 40.6092C56.2759 40.9332 55.7951 42.4902 55.7951 42.9131C55.7951 43.3451 56.0622 43.6961 56.5697 43.6961C57.1217 43.6961 57.3977 43.2821 57.4778 43.1561C57.7093 42.7601 58.1901 41.23 58.1901 40.7082C58.1901 40.2673 57.923 39.9883 57.4155 39.9883C56.9614 39.9883 56.6587 40.2673 56.4628 40.6092ZM57.4689 39.8441C58.0921 39.8441 58.8311 40.3842 58.8311 41.2932C58.8311 42.7511 57.6648 43.8401 56.5964 43.8401C55.617 43.8401 55.1541 43.138 55.1541 42.2652C55.1541 41.1402 56.1512 39.8441 57.4689 39.8441Z" fill="#13112A"/>
<path fill-rule="evenodd" clip-rule="evenodd" d="M60.3118 40.1863H59.6975L59.733 40.0423H60.0625C60.5166 40.0423 60.8816 40.0241 61.122 39.8441L60.7568 40.9602L60.7748 40.9782C61.015 40.5372 61.6473 39.8983 62.208 39.8983C62.5999 39.8983 62.7779 40.1143 62.7779 40.3482C62.7779 40.6452 62.5376 40.7982 62.315 40.7982C62.0569 40.7982 61.9767 40.6271 61.9767 40.4652C61.9767 40.2943 62.0212 40.2493 62.0212 40.2043C62.0212 40.1413 61.9855 40.1143 61.9055 40.1143C61.4871 40.1143 60.7481 41.0772 60.6234 41.5002L59.9735 43.7321H59.2791L60.3118 40.1863Z" fill="#13112A"/>
<path fill-rule="evenodd" clip-rule="evenodd" d="M67.1048 39.8441C67.6568 39.8441 67.9595 40.1683 67.9595 40.5732C67.9595 40.8522 67.7636 40.9961 67.5321 40.9961C67.2739 40.9961 67.1582 40.8072 67.1582 40.6182C67.1582 40.3752 67.3274 40.2583 67.452 40.1773C67.452 40.0693 67.363 39.9883 67.0692 39.9883C66.713 39.9883 66.3124 40.1503 66.3124 40.7532C66.3124 41.518 67.5232 41.491 67.5232 42.6521C67.5232 43.192 67.0425 43.8401 66.0186 43.8401C65.2262 43.8401 64.968 43.2551 64.968 42.931C64.968 42.6521 65.155 42.3912 65.4221 42.3912C65.6892 42.3912 65.8227 42.6071 65.8227 42.7691C65.8227 43.219 65.3865 43.0931 65.3865 43.3631C65.3865 43.4891 65.52 43.6961 66.0453 43.6961C66.4994 43.6961 66.8822 43.4441 66.8822 42.9491C66.8822 42.1932 65.7782 42.04 65.7782 41.0862C65.7782 40.6182 66.2946 39.8441 67.1048 39.8441Z" fill="#13112A"/>
<path fill-rule="evenodd" clip-rule="evenodd" d="M69.3324 40.1863H68.6824L68.7269 40.0423H69.3769L69.7597 38.8093C70.0535 38.8093 70.3295 38.7373 70.561 38.5573L70.098 40.0423H71.1397L71.0952 40.1863H70.0535L69.181 42.9761C69.1543 43.0751 69.1187 43.246 69.1187 43.3811C69.1187 43.5161 69.2077 43.6421 69.3947 43.6421C69.6796 43.6421 70.3117 43.2011 70.7302 42.5801L70.8281 42.6521C70.4453 43.138 69.8844 43.7861 69.2077 43.7861C68.7804 43.7861 68.4777 43.6151 68.4777 43.1471C68.4777 42.9671 68.54 42.7421 68.6201 42.4902L69.3324 40.1863Z" fill="#13112A"/>
<path fill-rule="evenodd" clip-rule="evenodd" d="M74.4478 42.9671C74.3944 43.1201 74.3768 43.2821 74.3768 43.3541C74.3768 43.4351 74.4569 43.5701 74.6259 43.5701C74.9466 43.5701 75.1423 43.2641 75.4363 42.8231L75.5431 42.8861C75.2582 43.3451 74.9555 43.7861 74.359 43.7861C73.985 43.7861 73.7357 43.5701 73.7357 43.2011C73.7357 43.0391 73.8337 42.7511 73.8958 42.5352H73.878C73.3349 43.2551 72.7742 43.7861 72.0708 43.7861C71.6524 43.7861 71.2695 43.6781 71.2695 43.1021C71.2695 42.9491 71.3675 42.6071 71.4118 42.4542L72.151 40.1863H71.5811L71.6168 40.0423H71.8571C72.2398 40.0423 72.6139 40.0063 72.9966 39.8441L71.9996 42.9671C71.9462 43.1291 71.9106 43.2821 71.9106 43.3361C71.9106 43.5251 72.0263 43.6421 72.2578 43.6421C72.7651 43.6421 73.7979 42.7691 74.1186 41.752L74.6617 40.0423H75.3828L74.4478 42.9671Z" fill="#13112A"/>
<path fill-rule="evenodd" clip-rule="evenodd" d="M77.37 43.6961C77.7974 43.6961 78.2337 43.3901 78.5097 43.0031C78.6254 42.8411 79.2575 41.0322 79.2575 40.7622C79.2575 40.5552 78.9636 39.9883 78.5008 39.9883C77.3255 39.9883 76.7378 42.0042 76.7557 42.958C76.7646 43.3901 76.9605 43.6961 77.37 43.6961ZM79.6404 37.3424H80.041C80.3881 37.3424 80.7444 37.2884 81.0293 37.1174L79.2842 43.0301C79.2575 43.1201 79.213 43.273 79.2218 43.399C79.2218 43.5251 79.2931 43.6241 79.4445 43.6241C79.6582 43.6241 79.9253 43.2911 80.041 43.138L80.2547 42.8411L80.3614 42.904L80.0588 43.3271C79.845 43.6331 79.5157 43.8401 79.1418 43.8401C78.7322 43.8401 78.5809 43.3811 78.6343 43.0301L78.6165 43.0121C78.4295 43.2641 78.02 43.8401 77.3076 43.8401C76.6133 43.8401 76.0613 43.2641 76.0613 42.301C76.0613 40.9421 77.4324 39.8441 78.3405 39.8441C78.9993 39.8441 79.2485 40.2942 79.3466 40.5732H79.3644L80.2102 37.4862H79.6048L79.6404 37.3424Z" fill="#13112A"/>
<path fill-rule="evenodd" clip-rule="evenodd" d="M82.6121 38.4043C82.3895 38.4043 82.3272 38.2153 82.3272 38.0983C82.3272 37.8012 82.5676 37.4324 82.8436 37.4324C83.1196 37.4324 83.1819 37.6214 83.1819 37.7384C83.1819 38.0353 82.9415 38.4043 82.6121 38.4043ZM81.2232 40.0423H81.4636C81.8464 40.0423 82.2204 40.0063 82.6032 39.8441L81.6773 42.7781C81.615 42.9671 81.5348 43.2011 81.5348 43.3361C81.5348 43.4441 81.5971 43.5701 81.7485 43.5701C82.2204 43.5701 82.6299 42.958 82.7368 42.7961L82.8436 42.8681C82.7278 43.0661 82.2027 43.7861 81.5081 43.7861C81.2232 43.7861 80.8938 43.6241 80.8938 43.1831C80.8938 43.0121 80.9561 42.8321 81.0097 42.643L81.7663 40.1863H81.1965L81.2232 40.0423Z" fill="#13112A"/>
<path fill-rule="evenodd" clip-rule="evenodd" d="M85.5217 39.9883C84.7204 39.9883 84.3643 40.9151 84.1595 41.5632C84.3021 41.6082 84.5336 41.6892 84.8005 41.6892C85.7621 41.6892 86.056 40.9062 86.056 40.5372C86.056 40.2223 85.8513 39.9883 85.5217 39.9883ZM86.3764 42.7601C86.1896 43.0211 85.6465 43.8401 84.6759 43.8401C84.1953 43.8401 83.2781 43.4711 83.2781 42.3102C83.2781 40.9242 84.5603 39.8441 85.6732 39.8441C86.1182 39.8441 86.6435 40.0603 86.6435 40.6271C86.6435 41.3202 85.8066 41.833 84.8005 41.833C84.569 41.833 84.3376 41.7882 84.1239 41.6982C84.035 42.04 83.9725 42.4182 83.9725 42.643C83.9725 43.2371 84.1595 43.6961 84.8094 43.6961C85.5751 43.6961 86.1362 42.8951 86.2875 42.697L86.3764 42.7601Z" fill="#13112A"/>
<path fill-rule="evenodd" clip-rule="evenodd" d="M88.0245 40.1863H87.41L87.4456 40.0423H87.775C88.2291 40.0423 88.5943 40.0241 88.8345 39.8441L88.4695 40.9602L88.4873 40.9782C88.7278 40.5372 89.3598 39.8983 89.9207 39.8983C90.3124 39.8983 90.4905 40.1143 90.4905 40.3482C90.4905 40.6452 90.2501 40.7982 90.0275 40.7982C89.7693 40.7982 89.6892 40.6271 89.6892 40.4652C89.6892 40.2943 89.7339 40.2493 89.7339 40.2043C89.7339 40.1413 89.6981 40.1143 89.618 40.1143C89.1995 40.1143 88.4606 41.0772 88.3361 41.5002L87.686 43.7321H86.9917L88.0245 40.1863Z" fill="#13112A"/>
<path fill-rule="evenodd" clip-rule="evenodd" d="M94.1587 40.6092C93.9717 40.9332 93.4908 42.4902 93.4908 42.9131C93.4908 43.3451 93.7579 43.6961 94.2655 43.6961C94.8173 43.6961 95.0935 43.2821 95.1735 43.1561C95.4051 42.7601 95.8859 41.23 95.8859 40.7082C95.8859 40.2673 95.6186 39.9883 95.1113 39.9883C94.6571 39.9883 94.3544 40.2673 94.1587 40.6092ZM95.1647 39.8441C95.788 39.8441 96.5268 40.3842 96.5268 41.2932C96.5268 42.7511 95.3604 43.8401 94.2922 43.8401C93.3127 43.8401 92.8497 43.138 92.8497 42.2652C92.8497 41.1402 93.847 39.8441 95.1647 39.8441Z" fill="#13112A"/>
<path fill-rule="evenodd" clip-rule="evenodd" d="M100.305 42.4002C100.19 42.6881 99.531 43.8401 98.5158 43.8401C98.0352 43.8401 97.118 43.4711 97.118 42.3102C97.118 41.1042 98.3111 39.8441 99.513 39.8441C100.118 39.8441 100.492 40.1413 100.492 40.4922C100.492 40.7892 100.332 40.9512 100.083 40.9512C99.8513 40.9512 99.6912 40.8072 99.6912 40.5282C99.6912 40.2853 99.789 40.1953 99.789 40.1323C99.789 40.0511 99.7445 39.9883 99.4774 39.9883C98.222 39.9883 97.8659 42.2202 97.8659 42.8861C97.8659 43.3361 98.0618 43.6961 98.5516 43.6961C99.4329 43.6961 100.101 42.5442 100.181 42.355L100.305 42.4002Z" fill="#13112A"/>
<path fill-rule="evenodd" clip-rule="evenodd" d="M102.524 37.4862H101.919L101.954 37.3424H102.355C102.702 37.3424 103.058 37.2884 103.343 37.1174L102.195 41.0862H102.212C102.604 40.4292 103.281 39.8441 103.975 39.8441C104.545 39.8441 104.812 40.1683 104.812 40.5732C104.812 40.9602 103.966 43.0661 103.966 43.2911C103.966 43.4351 104.029 43.5701 104.171 43.5701C104.554 43.5701 104.919 42.958 105.061 42.7871L105.15 42.85C104.972 43.111 104.554 43.7861 103.904 43.7861C103.486 43.7861 103.325 43.5251 103.325 43.1201C103.325 42.562 104.171 40.6632 104.171 40.2852C104.171 40.1051 104.073 39.9883 103.833 39.9883C103.414 39.9883 102.319 40.6541 101.963 41.8782L101.429 43.7321H100.717L102.524 37.4862Z" fill="#13112A"/>
<path fill-rule="evenodd" clip-rule="evenodd" d="M109.13 40.1863H108.48L108.525 40.0423H109.175L109.557 38.8093C109.851 38.8093 110.127 38.7373 110.359 38.5573L109.896 40.0423H110.937L110.893 40.1863H109.851L108.979 42.9761C108.952 43.0751 108.916 43.246 108.916 43.3811C108.916 43.5161 109.005 43.6421 109.192 43.6421C109.477 43.6421 110.109 43.2011 110.528 42.5801L110.626 42.6521C110.243 43.138 109.682 43.7861 109.005 43.7861C108.578 43.7861 108.275 43.6151 108.275 43.1471C108.275 42.9671 108.338 42.7421 108.418 42.4902L109.13 40.1863Z" fill="#13112A"/>
<path fill-rule="evenodd" clip-rule="evenodd" d="M112.018 40.1863H111.404L111.439 40.0423H111.769C112.223 40.0423 112.588 40.0241 112.828 39.8441L112.463 40.9602L112.481 40.9782C112.721 40.5372 113.354 39.8983 113.914 39.8983C114.306 39.8983 114.484 40.1143 114.484 40.3482C114.484 40.6452 114.244 40.7982 114.021 40.7982C113.763 40.7982 113.683 40.6271 113.683 40.4652C113.683 40.2943 113.728 40.2493 113.728 40.2043C113.728 40.1413 113.692 40.1143 113.612 40.1143C113.193 40.1143 112.454 41.0772 112.33 41.5002L111.68 43.7321H110.985L112.018 40.1863Z" fill="#13112A"/>
<path fill-rule="evenodd" clip-rule="evenodd" d="M118.123 37.6124C118.328 37.6124 118.461 37.7024 118.461 37.9184C118.461 38.1883 118.266 38.5843 117.963 38.5843C117.713 38.5843 117.66 38.3863 117.66 38.1793C117.66 37.9813 117.901 37.6124 118.123 37.6124ZM116.44 37.6124C116.645 37.6124 116.779 37.7024 116.779 37.9184C116.779 38.1883 116.583 38.5843 116.28 38.5843C116.031 38.5843 115.977 38.3863 115.977 38.1793C115.977 37.9813 116.218 37.6124 116.44 37.6124ZM115.684 43.6961C116.44 43.6961 116.877 42.9671 117.126 42.1302C117.348 41.3922 117.526 40.9691 117.526 40.7892C117.526 40.4652 117.259 39.9883 116.707 39.9883C115.568 39.9883 115.042 42.2832 115.042 42.9761C115.042 43.4529 115.283 43.6961 115.684 43.6961ZM117.607 42.904C117.562 43.0481 117.509 43.2281 117.509 43.3721C117.509 43.5161 117.58 43.6241 117.723 43.6241C118.034 43.6241 118.426 43.0211 118.551 42.85L118.639 42.9401C118.524 43.1021 118.132 43.8401 117.562 43.8401C116.957 43.8401 116.93 43.3091 116.921 43.0301H116.903C116.69 43.3989 116.191 43.8401 115.675 43.8401C114.829 43.8401 114.348 43.1471 114.348 42.3102C114.348 41.0502 115.63 39.8441 116.743 39.8441C117.322 39.8441 117.553 40.3212 117.616 40.5912H117.633L117.802 40.0423H118.488L117.607 42.904Z" fill="#13112A"/>
<path fill-rule="evenodd" clip-rule="evenodd" d="M120.066 40.1863H119.514L119.549 40.0423H119.736C120.119 40.0423 120.493 40.0063 120.876 39.8441L120.511 41.0862H120.529C120.92 40.4292 121.597 39.8441 122.291 39.8441C122.861 39.8441 123.128 40.1683 123.128 40.5732C123.128 40.9602 122.283 43.0661 122.283 43.2911C122.283 43.4351 122.345 43.5701 122.487 43.5701C122.87 43.5701 123.235 42.958 123.378 42.7871L123.466 42.85C123.289 43.111 122.87 43.7861 122.22 43.7861C121.802 43.7861 121.641 43.5251 121.641 43.1201C121.641 42.562 122.487 40.6632 122.487 40.2853C122.487 40.1051 122.389 39.9883 122.149 39.9883C121.731 39.9883 120.635 40.6541 120.279 41.8782L119.745 43.7321H119.033L120.066 40.1863Z" fill="#13112A"/>
<path fill-rule="evenodd" clip-rule="evenodd" d="M125.705 38.4043C125.482 38.4043 125.42 38.2153 125.42 38.0983C125.42 37.8012 125.66 37.4324 125.936 37.4324C126.212 37.4324 126.275 37.6214 126.275 37.7384C126.275 38.0353 126.034 38.4043 125.705 38.4043ZM124.316 40.0423H124.556C124.939 40.0423 125.313 40.0063 125.696 39.8441L124.77 42.7781C124.708 42.9671 124.628 43.2011 124.628 43.3361C124.628 43.4441 124.69 43.5701 124.841 43.5701C125.313 43.5701 125.723 42.958 125.83 42.7961L125.936 42.8681C125.821 43.0661 125.295 43.7861 124.601 43.7861C124.316 43.7861 123.987 43.6241 123.987 43.1831C123.987 43.0121 124.049 42.8321 124.102 42.643L124.859 40.1863H124.289L124.316 40.0423Z" fill="#13112A"/>
<path fill-rule="evenodd" clip-rule="evenodd" d="M127.268 40.1863H126.716L126.751 40.0423H126.938C127.321 40.0423 127.695 40.0063 128.078 39.8441L127.713 41.0862H127.731C128.122 40.4292 128.799 39.8441 129.493 39.8441C130.063 39.8441 130.33 40.1683 130.33 40.5732C130.33 40.9602 129.485 43.0661 129.485 43.2911C129.485 43.4351 129.547 43.5701 129.689 43.5701C130.072 43.5701 130.437 42.958 130.58 42.7871L130.669 42.85C130.491 43.111 130.072 43.7861 129.422 43.7861C129.004 43.7861 128.844 43.5251 128.844 43.1201C128.844 42.562 129.689 40.6632 129.689 40.2853C129.689 40.1051 129.591 39.9883 129.351 39.9883C128.932 39.9883 127.837 40.6541 127.481 41.8782L126.947 43.7321H126.235L127.268 40.1863Z" fill="#13112A"/>
<path fill-rule="evenodd" clip-rule="evenodd" d="M133.328 39.9883C132.5 39.9883 132.179 41.4192 132.179 41.8692C132.179 42.274 132.446 42.4992 132.838 42.4992C133.684 42.4992 133.951 40.8252 133.951 40.6362C133.951 40.2313 133.711 39.9883 133.328 39.9883ZM131.814 44.0201C131.69 44.0201 130.995 44.3351 130.995 45.136C130.995 45.505 131.333 46.108 132.411 46.108C133.639 46.108 134.369 45.1809 134.369 44.5151C134.369 44.0921 134.04 44.0201 133.844 44.0201H131.814ZM133.319 39.8441C133.728 39.8441 134.191 40.0873 134.396 40.4832C134.467 40.3302 134.717 39.8441 135.171 39.8441C135.491 39.8441 135.589 40.0781 135.589 40.2763C135.589 40.4382 135.509 40.6541 135.242 40.6541C135.002 40.6541 134.895 40.5012 134.895 40.2943C134.895 40.2133 134.921 40.1863 134.921 40.1503C134.921 40.1051 134.877 40.1051 134.85 40.1051C134.734 40.1051 134.53 40.4022 134.45 40.6362C134.53 40.8162 134.539 41.0052 134.539 41.1852C134.539 41.8692 133.773 42.643 132.802 42.643C132.589 42.643 132.322 42.589 132.171 42.5082C131.814 42.5801 131.423 42.7691 131.423 43.0571C131.423 43.2551 131.52 43.3721 132.09 43.3721C132.527 43.3721 132.981 43.3361 133.444 43.3361C134.013 43.3361 134.637 43.4081 134.637 44.2811C134.637 45.037 133.862 46.2518 132.286 46.2518C131.423 46.2518 130.621 45.874 130.621 45.2079C130.621 44.5779 131.075 44.2271 131.574 44.0019V43.9749C131.253 43.8671 131.102 43.6961 131.102 43.3541C131.102 42.8231 131.609 42.5352 132.064 42.4452C131.743 42.2112 131.538 41.833 131.538 41.437C131.538 40.5102 132.482 39.8441 133.319 39.8441Z" fill="#13112A"/>
</svg>